<svg xmlns="http://www.w3.org/2000/svg" viewBox="0 0 900 640" role="img" aria-label="破産防衛都市の都市コア">
  <defs>
    <linearGradient id="sky" x1="0" x2="1" y1="0" y2="1">
      <stop offset="0" stop-color="#182b2b"/>
      <stop offset="0.48" stop-color="#1e1a12"/>
      <stop offset="1" stop-color="#111821"/>
    </linearGradient>
    <linearGradient id="gold" x1="0" x2="1">
      <stop offset="0" stop-color="#f1c45b"/>
      <stop offset="1" stop-color="#64d39a"/>
    </linearGradient>
  </defs>
  <rect width="900" height="640" fill="url(#sky)"/>
  <path d="M0 500 C120 452 214 470 330 424 C492 360 620 390 900 300 L900 640 L0 640 Z" fill="#0f1514"/>
  <g opacity=".28" fill="none" stroke="#f7f4e8" stroke-width="2">
    <path d="M80 130H810M110 210H850M40 290H720"/>
    <path d="M160 74V380M320 44V430M500 88V420M690 38V330"/>
  </g>
  <g transform="translate(152 184)">
    <path d="M42 312V120l74-54 74 54v192Z" fill="#20302c" stroke="#f1c45b" stroke-width="5"/>
    <path d="M246 312V62l92-62 92 62v250Z" fill="#18211f" stroke="#64d39a" stroke-width="5"/>
    <path d="M484 312V104l68-48 68 48v208Z" fill="#20302c" stroke="#70b8ff" stroke-width="5"/>
    <path d="M0 312h680" stroke="url(#gold)" stroke-width="10" stroke-linecap="round"/>
    <g fill="#f1c45b">
      <rect x="78" y="152" width="28" height="34" rx="4"/>
      <rect x="126" y="152" width="28" height="34" rx="4"/>
      <rect x="286" y="100" width="34" height="42" rx="5"/>
      <rect x="354" y="100" width="34" height="42" rx="5"/>
      <rect x="520" y="142" width="30" height="36" rx="4"/>
      <rect x="574" y="142" width="30" height="36" rx="4"/>
    </g>
  </g>
  <circle cx="716" cy="158" r="62" fill="#ee7569" opacity=".22"/>
  <circle cx="716" cy="158" r="26" fill="#ee7569" opacity=".52"/>
  <path d="M608 480c58-74 138-76 206-18" fill="none" stroke="#ee7569" stroke-width="9" stroke-linecap="round"/>
</svg>
